<?xml version="1.0" encoding="utf-8"?>
<!-- Generator: Adobe Illustrator 26.0.1, SVG Export Plug-In . SVG Version: 6.00 Build 0)  -->
<svg version="1.1" id="Layer_1" xmlns="http://www.w3.org/2000/svg" xmlns:xlink="http://www.w3.org/1999/xlink" x="0px" y="0px"
	 viewBox="0 0 800 800" style="enable-background:new 0 0 800 800;" xml:space="preserve">
<style type="text/css">
	.st0{fill:#4B3307;}
</style>
<g>
	<g>
		<path class="st0" d="M354.6,624.9c-31.2,28.8-74.3,35.3-112.6,16.9c-13.8-6.7-25.5-15.9-34.6-26.9l-52.1,115.2
			c-2.4,5.2,0.3,9.2,1.5,10.6c1.2,1.5,4.7,4.7,10.3,3.1l37.9-10.6c4.3-1.2,8.7-1.8,13-1.8c18.2,0,35.3,10.3,43.5,27.3l17.1,35.4
			c2.5,5.2,7.2,5.7,9.1,5.7c1.9,0,6.6-0.6,9-5.9l82.9-183.3C370.5,613.4,361.9,618.1,354.6,624.9z"/>
	</g>
</g>
<g>
	<g>
		<path class="st0" d="M644.7,730.1l-52.1-115.2c-9.1,11-20.8,20.2-34.6,26.9c-38.3,18.4-81.4,12-112.6-16.9
			c-7.3-6.8-16-11.5-25.1-14.1l82.9,183.3c2.4,5.2,7.1,5.9,9,5.9c2,0,6.6-0.5,9.1-5.7l17.1-35.4c8.2-17,25.3-27.3,43.5-27.3
			c4.3,0,8.7,0.6,13,1.8l37.9,10.6c5.5,1.5,9-1.7,10.3-3.1C644.5,739.3,647.1,735.4,644.7,730.1z"/>
	</g>
</g>
<g>
	<g>
		<path class="st0" d="M685.7,324.7c-43.3-29.6-56.7-88.4-30.6-133.9c15.7-27.3,7.5-54.3-5.4-70.5c-12.9-16.2-37.4-30.1-67.5-20.9
			c-50.1,15.4-104.5-10.8-123.8-59.6C446.9,10.4,420.7,0,400,0c-20.7,0-46.9,10.4-58.5,39.8c-19.3,48.8-73.6,74.9-123.8,59.6
			c-30.1-9.2-54.6,4.7-67.5,20.9c-12.9,16.2-21.1,43.2-5.4,70.5c26.1,45.5,12.7,104.3-30.6,133.9c-26,17.8-30.4,45.7-25.8,65.8
			c4.6,20.2,20.6,43.4,51.8,48.1c51.8,7.9,89.4,55.1,85.6,107.4c-2.3,31.4,16.8,52.2,35.4,61.2c18.6,9,46.8,10.9,69.9-10.5
			c19.3-17.8,44-26.7,68.7-26.7c24.7,0,49.4,8.9,68.7,26.7c23.2,21.4,51.3,19.4,69.9,10.5c18.6-9,37.7-29.8,35.4-61.2
			c-3.8-52.3,33.8-99.5,85.6-107.4c31.2-4.8,47.2-28,51.8-48.1C716,370.4,711.7,342.5,685.7,324.7z M400,524.9
			c-113.4,0-205.7-92.3-205.7-205.7S286.6,113.6,400,113.6s205.7,92.3,205.7,205.7C605.7,432.6,513.4,524.9,400,524.9z"/>
	</g>
</g>
<g>
	<g>
		<path class="st0" d="M400,151.9c-92.3,0-167.3,75.1-167.3,167.3S307.7,486.5,400,486.5s167.3-75.1,167.3-167.3
			S492.3,151.9,400,151.9z M485.7,303l-104.1,76.1c-3.3,2.4-7.3,3.7-11.3,3.7c-1,0-2.1-0.1-3.1-0.3c-5.1-0.8-9.6-3.7-12.6-7.9
			l-31.1-44.3c-6.1-8.7-4-20.6,4.7-26.7c8.7-6.1,20.6-4,26.7,4.7l19.9,28.4l88.4-64.5c8.6-6.2,20.5-4.4,26.8,4.2
			C496.2,284.8,494.3,296.8,485.7,303z"/>
	</g>
</g>
</svg>
