<?xml version="1.0" encoding="utf-8"?>
<!-- Generator: Adobe Illustrator 26.0.1, SVG Export Plug-In . SVG Version: 6.00 Build 0)  -->
<svg version="1.1" id="_x32_" xmlns="http://www.w3.org/2000/svg" xmlns:xlink="http://www.w3.org/1999/xlink" x="0px" y="0px"
	 viewBox="0 0 800 800" style="enable-background:new 0 0 800 800;" xml:space="preserve">
<style type="text/css">
	.st0{fill:#4B3307;}
</style>
<g>
	<path class="st0" d="M757.9,632.1h4l15.6-183.9l22.4-47.6l-6.9-102.3c1.7-21.3-17-33.2-28.6-38.1l-21.2,52.3l-5.7-45.2l3.5-2.8
		l-0.9-12.3l8.7-3.1c-0.9-1.3-1.5-2.5-1.5-3.5c0-2.9,0-6.5,0-11.4c3.5-4.1,6.1-12.4,7.7-21.8c2.2-0.8,3.6-2.1,5.5-12
		c1.3-7-0.8-11.3-1.2-11.3c0.9-6.3,2.1-18.9-1.1-25.2c0,0,2.1-4.1,2.1-9.5c-9,1.4-37.6-18.1-46.1-2.3c-12.4-1.4-19.8,17.2-14.2,36.9
		c0,0-7-0.3-4.2,10c2.6,9.7,4.7,11.9,8.3,13.3c1.6,9.4,4.2,17.7,7.7,21.8c0,4.9,0,8.5,0,11.4c0,0.6-0.2,1.3-0.5,2l11.3,4l-1,12.9
		l3.5,2.8l-5.9,46.6l-26.6-53c-3.8,1.4-8.5,3.3-13.4,5.7l-9,66.6l-3.9-57.4c2.2-27.7-24-42.5-37.7-47.6c-0.8-0.3-1.7-0.7-2.7-1.2
		l-22,54.5l-6.2-49.2l3.8-3.1l-1.1-13.3l10.3-3.6c-0.1-0.3-0.1-0.5-0.1-0.8c0-3.5,0-7.9,0-13.9c4.2-5,7.4-15.1,9.4-26.6
		c2.7-1,4.4-2.6,6.7-14.6c1.6-8.5-0.9-13.8-1.5-13.8c1.1-7.7,2.6-23-1.3-30.7c0,0,2.6-5,2.6-11.6c-10.9,1.6-45.9-22.1-56.3-2.8
		c-15.1-1.7-24.1,21-17.3,45.1c0,0-8.5-0.4-5.1,12.2c3.2,11.8,5.7,14.5,10.2,16.2c1.9,11.5,5.1,21.6,9.4,26.6c0,5.3,0,9.3,0,12.6
		l14.2,5l-1.1,14l3.8,3.1l-6.4,50.7l-27.7-55.1c-0.3,0.1-0.5,0.2-0.8,0.3c-7.2,2.7-22.2,8-34.4,16.3l-12.2,90.7l-5.6-83.4v0
		c0.2-2.6,0.1-5.2-0.2-7.6c-3.5-26.8-36.3-41.8-51.7-47.7l-30.7,65.2l-7.6-60.1l4.7-3.7l-1.3-17.1l12.6-4.5c0-4.1,0-9.1,0-16.1
		c5-5.9,8.7-17.7,11-31.2c5.2-2,8.2-5.1,11.9-19c4-14.8-6-14.3-6-14.3c8-28.2-2.5-54.8-20.2-52.8c-12.2-22.7-53.1,5.2-65.9,3.2
		c0,7.8,3.1,13.6,3.1,13.6c-4.5,9-2.7,26.9-1.5,36c-0.7,0-9.7,0.1-5.9,14.3c3.7,13.9,6.7,17.1,11.9,19c2.2,13.5,6,25.4,10.9,31.2
		c0,6.9,0,12,0,16.1l14.9,5.3l-1.3,16.3l4.7,3.7l-8.1,64l-32.5-69.1c-16.8,6.4-54.4,23.7-51.9,55.3l-4.2,62.5l-9.4-69.8
		c-12.2-8.4-27.2-13.7-34.4-16.3c-0.3-0.1-0.5-0.2-0.8-0.3L221.9,283l-6.4-50.7l3.8-3.1l-1.1-14l14.2-5c0-3.3,0-7.3,0-12.6
		c4.2-5,7.5-15.1,9.4-26.6c4.5-1.7,7-4.4,10.2-16.2c3.4-12.6-5.1-12.2-5.1-12.2c6.9-24.1-2.2-46.8-17.3-45.1
		c-10.4-19.4-45.4,4.4-56.3,2.8c0,6.6,2.6,11.6,2.6,11.6c-3.8,7.7-2.3,23-1.3,30.7c-0.6,0-3.1,5.2-1.5,13.8
		c2.3,12.1,4,13.6,6.7,14.6c1.9,11.5,5.1,21.6,9.3,26.6c0,6,0,10.4,0,13.9c0,0.2-0.1,0.5-0.1,0.8l10.3,3.6l-1.1,13.3l3.8,3.1
		l-6.2,49.2l-22.1-54.5c-1,0.5-1.9,0.9-2.7,1.2c-13.7,5.1-39.8,19.9-37.7,47.6l-3.9,57.5l-9-66.7c-4.8-2.4-9.6-4.3-13.4-5.7
		l-26.6,53l-5.9-46.6l3.5-2.8l-1-12.9l11.3-4c-0.3-0.7-0.5-1.4-0.5-2c0-2.9,0-6.5,0-11.4c3.5-4.1,6.1-12.4,7.7-21.8
		c3.7-1.4,5.7-3.6,8.4-13.3c2.8-10.3-4.2-10-4.2-10c5.6-19.8-1.8-38.3-14.2-36.9c-8.5-15.9-37.2,3.6-46.1,2.3c0,5.4,2.1,9.5,2.1,9.5
		c-3.1,6.3-1.9,18.8-1,25.2c-0.5,0-2.6,4.3-1.2,11.3c1.8,9.9,3.3,11.2,5.5,12c1.6,9.4,4.2,17.7,7.7,21.8c0,4.9,0,8.5,0,11.4
		c0,1-0.5,2.3-1.4,3.5l8.7,3.1l-1,12.3l3.5,2.8l-5.7,45.2L35.5,260c-11.6,4.9-30.3,16.9-28.6,38.1L0,400.5l22.4,47.6l15.7,183.9h4
		l-0.1,2.8l-23.9,27.4l8,9.9l47.8-16v-24.2h2.3l0.3-136.5l27.2,136.5h6.4l0.3,1.7l-4.6,23.9l9.8,14.3l18.9-1.4l7.4-15.3l-2.2-23.1
		h2.2l-11.2-183.9l8.4-17.7l13.3,28.3l19.1,224.4h4.9l-0.1,3.4l-29.1,33.4l9.7,12.2l58.3-19.5v-29.5h2.8l0.4-166.5l33.2,166.5h7.8
		l0.3,2.1l-5.7,29.1l11.9,17.4l23-1.8l9-18.7l-2.7-28.2h2.7l-13.7-224.4l16.3-34.6l19.8,42.1v241.7h6l0,1.3l-36.4,41.7l12.1,15.2
		l72.8-24.3v-33.8l22.8-173.9l22.9,173.9h2.3v33.8l72.8,24.3l12.2-15.2l-36.4-41.7l0-1.3h3.7V466.1l21.9-46.6l18.4,39.1l-13.7,224.4
		h2.7l-2.7,28.2l9,18.7l23,1.8l12-17.4l-5.7-29.1l0.3-2.1h7.8l33.2-166.5l0.4,166.5h2.8v29.5l58.3,19.5l9.7-12.2l-29.1-33.4
		l-0.1-3.4h4.9l19.1-224.4l13.3-28.3l8.4,17.7l-11.2,183.9h2.2l-2.2,23.1l7.4,15.3l18.9,1.4l9.8-14.3l-4.6-23.9l0.3-1.7h6.4
		l27.2-136.5l0.4,136.5h2.3v24.2l47.8,16l8-9.9L758,634.9L757.9,632.1z"/>
</g>
</svg>
