<?xml version="1.0" encoding="utf-8"?>
<!-- Generator: Adobe Illustrator 26.0.1, SVG Export Plug-In . SVG Version: 6.00 Build 0)  -->
<svg version="1.1" id="Layer_1" xmlns="http://www.w3.org/2000/svg" xmlns:xlink="http://www.w3.org/1999/xlink" x="0px" y="0px"
	 viewBox="0 0 800 800" style="enable-background:new 0 0 800 800;" xml:space="preserve">
<style type="text/css">
	.st0{fill:#4B3307;}
</style>
<path class="st0" d="M800,400c0,18.4-14.9,33.3-33.3,33.3s-33.3-14.9-33.3-33.3C733.1,216,584,66.9,400,66.7
	c-18.4,0-33.3-14.9-33.3-33.3S381.6,0,400,0C620.8,0.2,799.8,179.2,800,400z M533.3,433.3c18.4,0,33.3-14.9,33.3-33.3
	c0-18.4-14.9-33.3-33.3-33.3h-75.9c-5.8-10-14.1-18.3-24.1-24.1V233.3c0-18.4-14.9-33.3-33.3-33.3c-18.4,0-33.3,14.9-33.3,33.3
	v109.2c-31.8,18.3-42.8,59-24.4,90.8s59,42.8,90.8,24.4c10.2-5.8,18.6-14.3,24.4-24.4H533.3z M60.9,226.1
	c-18.4,0-33.3,14.9-33.3,33.3s14.9,33.3,33.3,33.3s33.3-14.9,33.3-33.3S79.3,226.1,60.9,226.1L60.9,226.1z M66.7,400
	c0-18.4-14.9-33.3-33.3-33.3S0,381.6,0,400c0,18.4,14.9,33.3,33.3,33.3S66.7,418.4,66.7,400z M400,733.3
	c-18.4,0-33.3,14.9-33.3,33.3S381.6,800,400,800c18.4,0,33.3-14.9,33.3-33.3S418.4,733.3,400,733.3z M140.7,106.9
	c-18.4,0-33.3,14.9-33.3,33.3s14.9,33.3,33.3,33.3s33.3-14.9,33.3-33.3l0,0C174,121.8,159.1,106.9,140.7,106.9z M259.3,28
	C240.9,28,226,43,226,61.4s14.9,33.3,33.3,33.3s33.3-14.9,33.3-33.3c0,0,0,0,0,0C292.6,43,277.7,28,259.3,28z M60.9,507.2
	c-18.4,0-33.3,14.9-33.3,33.3c0,18.4,14.9,33.3,33.3,33.3s33.3-14.9,33.3-33.3C94.2,522.1,79.3,507.2,60.9,507.2L60.9,507.2z
	 M140.7,626.4c-18.4,0-33.3,14.9-33.3,33.3s14.9,33.3,33.3,33.3s33.3-14.9,33.3-33.3S159.1,626.4,140.7,626.4z M259.3,705.3
	c-18.4,0-33.3,14.9-33.3,33.3s14.9,33.3,33.3,33.3c18.4,0,33.3-14.9,33.3-33.3C292.6,720.2,277.7,705.3,259.3,705.3L259.3,705.3z
	 M739.1,507.2c-18.4,0-33.3,14.9-33.3,33.3s14.9,33.3,33.3,33.3s33.3-14.9,33.3-33.3C772.4,522.1,757.5,507.2,739.1,507.2
	L739.1,507.2z M659.3,626.4c-18.4,0-33.3,14.9-33.3,33.3s14.9,33.3,33.3,33.3c18.4,0,33.3-14.9,33.3-33.3S677.7,626.4,659.3,626.4z
	 M540.7,705.3c-18.4,0-33.3,14.9-33.3,33.3s14.9,33.3,33.3,33.3c18.4,0,33.3-14.9,33.3-33.3C574,720.2,559.1,705.3,540.7,705.3
	L540.7,705.3z"/>
</svg>
