<?xml version="1.0" encoding="utf-8"?>
<!-- Generator: Adobe Illustrator 26.0.1, SVG Export Plug-In . SVG Version: 6.00 Build 0)  -->
<svg version="1.1" id="Layer_1" xmlns="http://www.w3.org/2000/svg" xmlns:xlink="http://www.w3.org/1999/xlink" x="0px" y="0px"
	 viewBox="0 0 272 290.6" style="enable-background:new 0 0 272 290.6;" xml:space="preserve">
<style type="text/css">
	.st0{fill:#4B3307;}
</style>
<g>
	<path class="st0" d="M149.1,156.6c3.6,0,6.7-2.8,7-6.6c0.3-3.9-2.6-7.4-6.4-7.7l-36.1-2.9l-22.2-22.1c-1.7,0.8-3.6,1.4-5.6,1.8
		c-1.3,0.2-2.6,0.3-3.8,0.3c-8.3,0-15.7-4.7-19.6-11.8l-9.7-2.2c-0.3-0.1-0.6-0.1-0.9-0.1c-0.7-0.2-1.5-0.3-2.2-0.2
		c-8,0.5-18.2,6.6-25.9,12.1c-5.1,3.6-9.1,7-10.6,8.3c-2.2,1.9-3,5-2.1,7.8L22.4,167c1,3,3.7,4.8,6.6,4.8c0.8,0,1.5-0.1,2.3-0.4
		c3.7-1.3,5.6-5.4,4.3-9.1l-9.9-29c1.8-1.4,3.8-2.9,5.8-4.3c3.7-2.6,7.6-5.1,11.1-6.9l-1.5,5.9l-2.4-1.7L30,138.9l0.8,2.4l8.3-12.1
		l24.9,17.7l-1.1,1.6l-22.1-17l-9.2,12.4l0.8,2.3l8.8-11.8L65.5,153l-25,33.6l-24.2-18.7l2.9-3.8l-0.8-2.3l-2,2.6l-0.9-0.6l2.4-3.4
		l-0.8-2.4l-4.4,6.4l2.5,1.8l-1.7,2.3l22.4,17.3l12.1,28.3l-18.6,40.8c-2.5,5.6-0.1,12.2,5.4,14.8c1.5,0.7,3.1,1,4.6,1
		c4.1,0,8.1-2.4,10-6.5l20.6-45.4c1.3-2.9,1.4-6.2,0.1-9.1l-7.4-17.4l21.6,24.3l1.2,42.3c0.2,6.1,5,10.8,11,10.8c0.1,0,0.2,0,0.3,0
		c6.1-0.2,10.8-5.3,10.6-11.5l-1.3-46.4c-0.1-2.7-1.1-5.2-2.8-7.2L77.7,176l11-41.2l16.8,16.8c1.2,1.2,2.7,1.9,4.4,2l38.7,3.1
		C148.7,156.6,148.9,156.6,149.1,156.6z"/>
	<path class="st0" d="M60.7,97.3c-0.3,2.3,0.7,4.5,2.5,5.8c3,9.3,12.3,15.1,22.1,13.4c9.7-1.7,16.6-10.4,16.4-20.2
		c0.1-0.1,0.2-0.3,0.3-0.4c1-1.7,1-3.7,0.4-5.5c-0.1-0.3-0.2-0.5-0.4-0.8c0.3-0.5,0.5-0.9,0.7-1.4c0.8-2.5,0-5.3-2.1-6.9
		c0-0.1,0-0.2,0.1-0.4c0.3-2.3-0.7-4.5-2.6-5.9c-0.5-0.4-1.2-0.7-1.9-0.9c-0.3-1.5-1.2-2.9-2.5-3.8c-1.3-0.9-2.8-1.3-4.3-1.1
		c-0.4-0.6-0.9-1.1-1.5-1.5c-1.9-1.3-4.3-1.5-6.3-0.5c-0.1,0.1-0.2,0.1-0.3,0.2C79,66,76.1,66.1,74,67.8c-0.4,0.3-0.8,0.7-1.1,1.1
		c-2.1-0.4-4.3,0.3-5.8,2.1c-0.6,0.7-1,1.5-1.3,2.4c-1.5,0.3-2.9,1.3-3.7,2.5c-0.9,1.3-1.3,2.9-1.1,4.4c-0.8,0.5-1.4,1.2-1.8,2
		c-1.1,2-1,4.4,0,6.2C59,89,58.8,89.5,58.7,90c-0.8,2.5,0,5.3,2.1,6.9c0,0,0,0,0,0C60.7,97,60.7,97.1,60.7,97.3z M94.7,102.6
		c0,0-7.4,16.7-19.7,3.1C75,105.7,87.2,107.7,94.7,102.6z M65.5,88.7c-6.2-0.2-4.4-8.4,1.3-5.9c-5.7-2.6-0.9-9.5,3.4-4.9
		c-4.3-4.6,2.8-9.1,5-3.2c-2.2-5.9,6-7.3,5.8-1c0.2-6.3,8.3-4.4,5.8,1.3c2.5-5.8,9.3-0.9,4.8,3.5c4.5-4.3,8.9,2.8,3.2,5.1
		c5.8-2.3,7.2,6.1,1,5.9c2,0,3.1,0.9,3.6,2c-7.7-5.2-27.1-4.6-34.3,3.5C60.5,95.5,59.9,88.6,65.5,88.7z"/>
	<path class="st0" d="M129.4,66.9c6.1,7.2,15.1,11.8,25.2,11.8c18.4,0,33.2-15.1,33.2-33.8S173,11.1,154.7,11.1
		s-33.2,15.1-33.2,33.8c0,5.3,1.2,10.3,3.3,14.7L110.6,77L129.4,66.9z M139.6,44.4c1.5-0.1,5.5,7.1,6.3,9.6
		c0.8,2.5,4.7-12.4,25.6-26.7c0,0,2.6-1.4,0.1,1c-5.6,5.2-18.5,19.4-23.1,34.6c-1.4,4.8-5.2,2.7-5.8,0.1c-4-15.8-8.7-15.1-8.7-15.1
		S138.1,44.5,139.6,44.4z"/>
	<polygon class="st0" points="127.7,270.3 186.2,270.3 186.2,220.8 163.7,220.8 163.7,244.6 161.2,242.8 158.8,244.6 156.7,242.8 
		154.2,244.6 151.8,242.8 150.2,244.6 150.2,220.8 127.7,220.8 	"/>
	<polygon class="st0" points="249.2,220.8 226.7,220.8 226.7,244.6 224.1,242.8 221.8,244.6 219.7,242.8 217.2,244.6 214.8,242.8 
		213.1,244.6 213.1,220.8 190.6,220.8 190.6,270.3 249.2,270.3 	"/>
	<polygon class="st0" points="161.2,188.4 158.8,190.2 156.7,188.4 154.2,190.2 151.8,188.4 150.2,190.2 150.2,166.4 127.7,166.4 
		127.7,215.9 186.2,215.9 186.2,166.4 163.7,166.4 163.7,190.2 	"/>
	<polygon class="st0" points="190.6,215.9 249.2,215.9 249.2,166.4 226.7,166.4 226.7,190.2 224.1,188.4 221.8,190.2 219.7,188.4 
		217.2,190.2 214.8,188.4 213.1,190.2 213.1,166.4 190.6,166.4 	"/>
	<path class="st0" d="M48.3,146.7c0.5,0.3,4.9,3.7,5.7,4.6c0.5,0.5,1.7,1.3,2.9,2.2c0.9,0.6,2,1.4,2.2,1.7l1-0.8
		c-0.3-0.4-1.1-0.9-2.5-1.9c-1.1-0.8-2.3-1.6-2.7-2.1c-0.9-1-5.3-4.4-6.1-4.8c-0.8-0.4-3.7-2.3-4-2.7c-0.3-0.5-2.4-1.9-3.5-2.7
		l-0.7,1.1c1.3,0.9,2.9,2,3.2,2.3C44.3,144.3,48,146.5,48.3,146.7z"/>
	<path class="st0" d="M46.3,149.4c0.5,0.3,4.9,3.7,5.7,4.6c0.5,0.5,1.7,1.3,2.9,2.2c0.9,0.6,2,1.4,2.2,1.7l1-0.8
		c-0.3-0.4-1.1-0.9-2.5-1.9c-1.1-0.8-2.3-1.6-2.7-2.1c-0.9-1-5.3-4.4-6.1-4.8c-0.8-0.4-3.7-2.3-4-2.7c-0.3-0.5-2.4-1.9-3.5-2.7
		l-0.7,1.1c1.3,0.9,2.9,2,3.2,2.3C42.2,147,45.9,149.2,46.3,149.4z"/>
	<path class="st0" d="M38.1,151.2c0.5,0.7,4.1,2.9,4.5,3.1c0.5,0.3,4.9,3.7,5.7,4.6c0.5,0.5,1.7,1.3,2.9,2.2c0.9,0.6,2,1.4,2.2,1.7
		l1-0.8c-0.3-0.3-1.1-0.9-2.5-1.9c-1.1-0.8-2.3-1.6-2.7-2.1c-0.9-1-5.3-4.4-6.1-4.8c-0.8-0.4-3.7-2.3-4-2.7
		c-0.3-0.5-2.4-1.9-3.5-2.7l-0.7,1.1C36.3,149.8,37.9,150.9,38.1,151.2z"/>
	<path class="st0" d="M34.8,152.9c0.7,0.5,1.2,0.9,1.3,1c0.5,0.7,4.1,2.9,4.5,3.1c0.5,0.3,4.9,3.7,5.7,4.6c0.5,0.5,1.7,1.3,2.9,2.2
		c0.9,0.6,2,1.4,2.2,1.7l1-0.8c-0.3-0.4-1.1-0.9-2.5-1.9c-1.1-0.8-2.3-1.6-2.7-2c-0.9-1-5.3-4.4-6.1-4.8c-0.8-0.4-3.7-2.3-4-2.7
		c-0.3-0.5-1.9-1.6-3.1-2.4L34.8,152.9z"/>
	<path class="st0" d="M43.6,165.3c0.5,0.5,1.7,1.3,2.9,2.2c0.9,0.6,2,1.4,2.2,1.7l1-0.8c-0.3-0.4-1.1-0.9-2.5-1.9
		c-1.1-0.8-2.3-1.6-2.7-2.1c-0.9-1-5.3-4.4-6.1-4.8c-0.3-0.2-1-0.6-1.7-1.1l0.7,2c0.2,0.1,0.4,0.2,0.5,0.3
		C38.3,161,42.7,164.4,43.6,165.3z"/>
	<path class="st0" d="M41.5,168.1c0.5,0.5,1.7,1.3,2.9,2.2c0.9,0.6,2,1.4,2.2,1.7l1-0.8c-0.3-0.4-1.1-0.9-2.5-1.9
		c-1.1-0.8-2.3-1.6-2.7-2.1c-0.6-0.6-2.7-2.3-4.3-3.5c0.1,0.6,0.1,1.1,0,1.7C39.6,166.4,41,167.6,41.5,168.1z"/>
	<path class="st0" d="M40.8,175.2c0.9,0.6,2,1.4,2.2,1.7l1-0.8c-0.3-0.4-1.1-0.9-2.5-1.9c-1.1-0.8-2.3-1.6-2.7-2.1
		c-0.4-0.4-1.3-1.1-2.3-2c-0.3,0.4-0.5,0.7-0.8,1c1,0.8,1.8,1.5,2.2,1.9C38.4,173.5,39.5,174.3,40.8,175.2z"/>
	<path class="st0" d="M38.7,178c0.9,0.6,2,1.4,2.2,1.7l1-0.8c-0.3-0.3-1.1-0.9-2.5-1.9c-1.1-0.8-2.3-1.6-2.7-2.1
		c-0.4-0.4-1.5-1.4-2.7-2.3c-0.4,0.3-0.8,0.5-1.3,0.7c1.3,1,2.6,2.1,3,2.5C36.3,176.2,37.5,177.1,38.7,178z"/>
</g>
</svg>
